<?xml version="1.0" encoding="UTF-8"?>
<svg width="1200pt" height="1200pt" version="1.1" viewBox="0 0 1200 1200" xmlns="http://www.w3.org/2000/svg">
 <path d="m343.06 426.19c-12.52 0-22.672 10.148-22.672 22.672 0 12.52 10.148 22.672 22.672 22.672h513.89c12.52 0 22.672-10.152 22.672-22.672s-10.148-22.672-22.672-22.672zm0 151.14c-12.52 0-22.672 10.148-22.672 22.672 0 12.52 10.148 22.672 22.672 22.672h513.89c12.52 0 22.672-10.152 22.672-22.672 0-12.52-10.148-22.672-22.672-22.672zm0 151.14c-12.52 0-22.672 10.148-22.672 22.672 0 12.52 10.148 22.672 22.672 22.672h513.89c12.52 0 22.672-10.152 22.672-22.672 0-12.52-10.148-22.672-22.672-22.672z" fill="#fff"/>
</svg>
