<?xml version="1.0" encoding="UTF-8"?>
<svg width="1200pt" height="1200pt" version="1.1" viewBox="0 0 1200 1200" xmlns="http://www.w3.org/2000/svg">
 <path d="m264.64 264.64c19.527-19.527 51.184-19.527 70.711 0l264.64 264.64 264.64-264.64c19.527-19.527 51.184-19.527 70.711 0 19.523 19.527 19.523 51.184 0 70.711l-264.64 264.64 264.64 264.64c19.523 19.527 19.523 51.184 0 70.711-19.527 19.523-51.184 19.523-70.711 0l-264.64-264.64-264.64 264.64c-19.527 19.523-51.184 19.523-70.711 0-19.527-19.527-19.527-51.184 0-70.711l264.64-264.64-264.64-264.64c-19.527-19.527-19.527-51.184 0-70.711z" fill="#fff"/>
</svg>
