<?xml version="1.0" encoding="UTF-8"?>
<svg width="1200pt" height="1200pt" version="1.1" viewBox="0 0 1200 1200" xmlns="http://www.w3.org/2000/svg">
 <path d="m539.54 282.6-14.406 79.352c-14.004 4.4023-27.566 10.082-40.383 16.77l-66.598-45.816-85.488 85.488 46.051 66.359c-6.7148 12.855-12.352 26.336-16.77 40.383l-79.352 14.406v120.91l79.355 14.406c4.4258 14.086 10.266 27.5 17.004 40.383l-46.289 66.359 85.488 85.488 66.363-45.816c12.875 6.7305 26.547 12.344 40.621 16.77l14.406 79.352h120.91l14.406-79.352c14.047-4.418 27.527-10.055 40.383-16.77l66.359 45.816 85.492-85.488-46.051-66.359c6.6875-12.797 12.359-26.164 16.77-40.148l79.582-14.641v-120.91l-79.586-14.406c-4.3867-13.957-9.8789-27.371-16.531-40.148l45.816-66.598-85.492-85.488-66.359 45.816c-12.855-6.7148-26.336-12.352-40.383-16.77l-14.406-79.352h-120.91zm60.457 181.37c75.129 0 136.03 60.902 136.03 136.03 0 75.129-60.902 136.03-136.03 136.03s-136.03-60.902-136.03-136.03c0-75.125 60.902-136.03 136.03-136.03z" fill="#fff"/>
</svg>
