<?xml version="1.0" encoding="UTF-8"?>
<svg width="1200pt" height="1200pt" version="1.1" viewBox="0 0 1200 1200" xmlns="http://www.w3.org/2000/svg">
 <g fill="#fff">
  <path d="m766.5 975h-339c-60 0-108-48-108-108v-477c0-16.5 13.5-30 30-30s30 13.5 30 30v477c0 27 21 48 48 48h339c27 0 48-21 48-48v-477c0-16.5 13.5-30 30-30s30 13.5 30 30v477c0 60-48 108-108 108z"/>
  <path d="m321 352.5h597v75h-597z"/>
  <path d="m270 352.5h661.5v75h-661.5z"/>
  <path d="m714 427.5h-232.5c-21 0-37.5-16.5-37.5-37.5v-135c0-21 16.5-37.5 37.5-37.5h234c21 0 37.5 16.5 37.5 37.5v135c-1.5 21-18 37.5-39 37.5zm-195-75h159v-60h-159z"/>
  <path d="m504 826.5c-16.5 0-30-13.5-30-30v-274.5c0-16.5 13.5-30 30-30s30 13.5 30 30v274.5c0 16.5-13.5 30-30 30z"/>
  <path d="m685.5 826.5c-16.5 0-30-13.5-30-30v-274.5c0-16.5 13.5-30 30-30s30 13.5 30 30v274.5c0 16.5-13.5 30-30 30z"/>
 </g>
</svg>
