<?xml version="1.0" encoding="UTF-8"?>
<svg width="1200pt" height="1200pt" version="1.1" viewBox="0 0 1200 1200" xmlns="http://www.w3.org/2000/svg">
 <path d="m1178.2 177.02-155.2-155.2c-11.094-11.086-25.398-18.395-40.883-20.883-15.484-2.4844-31.359-0.023438-45.367 7.0312-2.4648-0.83594-5.1914-0.19922-7.0312 1.6406l-748.12 748.12-83.367 83.438c-1.0078 1.0117-1.6719 2.3164-1.8984 3.7266l-0.91406-0.91406-95.391 356.02 356.02-95.391-0.91406-0.91406c1.4102-0.22656 2.7148-0.89062 3.7266-1.8984l831.56-831.56c1.8398-1.8398 2.4766-4.5664 1.6406-7.0312 7.0391-14 9.4922-29.859 7.0039-45.328-2.4844-15.473-9.7852-29.766-20.855-40.852z" fill="#fff"/>
</svg>
